<?xml version="1.0" encoding="UTF-8"?>
<svg width="35px" height="23px" viewBox="0 0 35 23" version="1.1" xmlns="http://www.w3.org/2000/svg" xmlns:xlink="http://www.w3.org/1999/xlink">
    <!-- Generator: sketchtool 46.2 (44496) - http://www.bohemiancoding.com/sketch -->
    <title>06492872-D277-4BC3-9FE2-EFEA9A6F3E52</title>
    <desc>Created with sketchtool.</desc>
    <defs></defs>
    <g id="pazomat" stroke="none" stroke-width="1" fill="none" fill-rule="evenodd">
        <g id="001_pazomat_hp-" transform="translate(-213.000000, -2709.000000)" fill="#FFCC01">
            <g id="footer-new" transform="translate(10.000000, 2496.000000)">
                <path d="M232.681062,214.565824 L220.537228,222.186167 L217.718745,217.697472 L203,227.022823 L204.531028,229.423753 L216.848843,221.62943 L219.667326,226.117777 L234.246886,216.931958 L235.325565,218.60217 L237.308594,213.313165 L231.636832,213 L232.681062,214.565824 Z M230.03656,222.116575 L230.03656,235.895825 L233.655353,235.895825 L233.655353,219.854829 L230.03656,222.116575 Z M224.260409,225.73502 L224.260409,235.895825 L227.879202,235.895825 L227.879202,223.473622 L224.260409,225.73502 Z M212.742904,226.77925 L212.742904,235.895825 L216.326901,235.895825 L216.326901,224.865466 L216.152921,224.587097 L212.742904,226.77925 Z M218.971404,229.040996 L218.484259,229.388957 L218.484259,235.930621 L222.103052,235.930621 L222.103052,227.092415 L218.971404,229.040996 Z M206.966754,230.432492 L206.966754,235.895825 L210.585547,235.895825 L210.585547,228.136646 L206.966754,230.432492 Z" id="icon4"></path>
            </g>
        </g>
    </g>
</svg>