<?xml version="1.0" encoding="UTF-8"?>
<svg width="35px" height="30px" viewBox="0 0 35 30" version="1.1" xmlns="http://www.w3.org/2000/svg" xmlns:xlink="http://www.w3.org/1999/xlink">
    <!-- Generator: sketchtool 46.2 (44496) - http://www.bohemiancoding.com/sketch -->
    <title>FAA6EBA7-DEE7-43B0-8918-98594F94FAAE</title>
    <desc>Created with sketchtool.</desc>
    <defs>
        <polygon id="path-1" points="1.5746509e-15 20.8857379 1.5746509e-15 0.0913772564 34.9683311 0.0913772564 34.9683311 20.8857379"></polygon>
    </defs>
    <g id="pazomat" stroke="none" stroke-width="1" fill="none" fill-rule="evenodd">
        <g id="001_pazomat_hp-" transform="translate(-213.000000, -2602.000000)">
            <g id="footer-new" transform="translate(10.000000, 2496.000000)">
                <g id="icon1" transform="translate(203.000000, 106.000000)">
                    <path d="M14,4.97564003 C13.4360398,2.79732548 12.9500347,4.98287189 13.0161925,4.73546591 L13,5 C13.4471432,3.61833273 14,4.97564003 14,4.97564003" id="Fill-1" fill="#FFCC01"></path>
                    <path d="M31.9941618,11 C32.0179807,10.8272304 32.0634695,9.83661242 30,10.0233173 C30.6515277,10.2032574 31.5127692,10.5167321 31.9941618,11" id="Fill-3" fill="#FFCC01"></path>
                    <path d="M27,9.03431169 C27,9.03431169 28.1479008,9.0673462 27.7318865,10 L27.8631782,9.88759953 C27.7769376,10.0415529 28.601758,8.77855387 27,9.03431169" id="Fill-5" fill="#FFCC01"></path>
                    <g id="Group-9">
                        <mask id="mask-2" fill="white">
                            <use xlink:href="#path-1"></use>
                        </mask>
                        <g id="Clip-8"></g>
                        <path d="M4.52470904,12.8474467 C4.4485791,10.7814 6.2015452,10.5382318 6.2015452,10.5382318 C5.29233616,11.1866804 5.43134746,12.2563065 5.66428531,12.9679514 C6.54304237,12.9665776 7.80066949,12.7783626 9.10535876,11.9681944 C9.11880508,11.9503346 9.13225141,11.9322785 9.14589548,11.9142224 C8.12081073,11.6675215 6.42855085,10.8553907 4.74578249,8.27513832 C4.5205565,8.04649346 4.04736441,7.53954953 4.33883333,7.59136262 L4.53380508,7.64415701 C4.53380508,7.64415701 4.60479379,7.0475215 5.13533051,7.96563364 C5.55473729,8.34991402 8.20920056,10.6734561 10.3167147,10.008129 C10.3384661,9.96534393 10.3604153,9.92412897 10.3821667,9.88055888 C10.9109237,8.59465234 11.1501893,6.96587664 10.3930424,5.87799813 C10.361404,5.81637196 10.3230424,5.76181121 10.2759802,5.7152972 C10.2977316,5.67643738 10.315726,5.6415028 10.3317429,5.60813832 C8.26199718,6.05718505 5.80250565,7.22513832 4.80114972,4.50141869 C5.02301412,4.37424112 5.28739266,4.30437196 5.57490678,4.27198879 C5.95872034,3.35937196 6.94801412,2.78432523 8.11843785,2.63438131 L8.0205565,2.53821308 C9.50518927,0.812091589 11.4032966,3.1491757 11.4040876,3.14996075 C11.6348503,3.20255888 12.3817147,3.42099813 12.6114887,3.46496075 C15.6119972,4.32340935 17.8298503,4.67157757 18.4642006,5.74964299 C18.9779294,5.7782972 18.7861215,5.97318505 18.6057825,6.09682991 C18.6067712,6.10016636 18.6079576,6.1035028 18.6089463,6.10683925 C18.4145678,6.22675514 17.3564605,7.01023178 16.4565452,6.08780187 C17.4142006,7.06891402 18.7546808,6.6602972 18.7546808,6.6602972 C18.8408955,6.7232972 19.1337486,7.06067103 18.2998785,7.10679252 C18.1499915,7.11503551 17.9271384,7.09482056 17.6556412,7.06911028 C17.419935,7.4685028 16.5882401,8.74420374 15.7025621,8.51614766 C15.7025621,8.51614766 16.2427881,8.4294 16.2769972,8.19997009 C16.2769972,8.19997009 15.5732401,8.53675514 15.351178,8.24726916 C15.351178,8.24726916 16.2789746,7.81254953 16.8116864,7.00238131 C15.5576186,6.93977383 13.9169689,7.07911963 13.0030141,8.5385215 C12.7030424,8.93811028 12.3399915,9.84169907 12.1070537,11.0167178 C12.1040876,11.0304561 12.1009237,11.0436056 12.0977599,11.0569514 C12.7182684,12.8598112 15.3630424,13.7435776 16.1144548,13.9610355 C16.6871102,13.0240822 16.4628729,14.1633813 16.4628729,14.1633813 L16.4887768,14.184185 C16.580726,14.1816336 17.1318277,14.229914 17.2123079,14.2348206 C17.8167994,14.2705402 20.4789746,14.3674935 21.9816017,13.4215121 C21.3818559,12.5565869 20.7963475,11.3397645 20.5125904,9.69254019 C20.4860932,9.53906355 20.4107542,9.1695028 20.3947373,9.06018505 C20.3445113,8.7167271 20.254935,8.0186243 20.3761497,8.13677383 L20.5066582,8.29064299 C20.5066582,8.29064299 20.7028164,7.69891402 20.961065,8.87844673 C21.0542006,9.11808224 22.0812627,11.6936243 23.6169124,12.7887645 C24.0129859,12.2447271 24.2749915,11.7701664 24.3770254,11.4490822 C25.1270537,9.61776449 24.0719124,7.92088598 23.3986073,7.09776449 C22.5172797,7.72560561 22.1040028,8.86804486 22.1040028,8.86804486 C21.7953305,8.67315701 22.0788898,7.9085215 22.0788898,7.9085215 C21.8503023,7.97014766 21.806404,8.53773645 21.806404,8.53773645 C21.5548785,7.79037196 22.3786638,6.95959626 22.8732119,6.5435215 C22.7688051,6.45500748 22.5991441,6.27366168 22.4876186,6.08603551 L22.5319124,6.15139065 C22.1473079,5.42345607 22.4961215,5.45564299 22.6201045,5.48900748 C22.650952,5.73924112 23.0561215,6.75685794 24.4165734,7.0854 C23.2236073,6.44126916 23.1731836,5.44779252 23.1676469,5.27724112 C23.1696243,5.27625981 23.1717994,5.27488598 23.1739746,5.27390467 C23.216291,5.0668486 23.3117994,4.82937196 23.5047938,5.17400748 C24.7697373,4.97283925 26.3366299,6.61849346 28.7980989,8.60505421 C28.966178,8.76814766 29.5742288,9.25232523 29.7494266,9.41149346 C29.7512062,9.41247477 32.7701045,9.52866168 32.1911215,11.8414093 L32.056065,11.8208019 C32.6344548,12.9516617 32.7016864,14.2114654 32.0532966,15.1154467 L31.8369689,15.0567645 C31.8369689,15.0567645 32.9793136,11.8673159 29.4144548,11.4380916 C29.3266582,11.6237551 29.2517147,11.7409234 29.185274,11.8115776 C29.2368842,12.0612224 29.2710932,12.5385308 29.1995113,13.5563439 C29.1243701,14.6444187 29.2859237,16.3544467 28.6213192,17.2146617 C26.3067712,15.9395495 28.1785791,12.0247178 28.1928164,11.9471944 C28.186291,11.8714374 28.1151045,11.9458206 28.0735791,11.9550449 C28.0725904,11.9556336 28.0717994,11.9556336 28.070613,11.9556336 C22.7312345,15.4789234 22.8032119,17.433886 23.9313192,18.9719888 C24.0127881,19.0832692 24.114822,19.1912131 24.2316864,19.2962131 C24.7141723,19.0542224 25.266065,18.615185 25.849596,17.8474093 C25.849596,17.8474093 25.9148503,19.0797364 25.1713475,19.9205215 C25.8689746,20.2828206 26.7287486,20.5813346 27.5636073,20.7999701 C27.5725056,20.8015402 27.579822,20.8025215 27.5889181,20.8042879 C30.7509802,21.4405682 32.8037203,18.1400355 32.8037203,18.1400355 C37.7725339,8.63135327 33.4525056,1.11354953 27.2600763,0.250194393 C21.2849633,-0.582740187 19.2136356,2.88873645 17.8800763,2.88873645 C16.6495395,2.88873645 14.1447655,-0.710899065 8.05872034,0.256474766 C2.72982203,1.10314766 -0.913341808,6.36276449 0.200923729,12.6598206 C1.35987853,9.85661495 3.19292938,11.2159234 4.52470904,12.8474467" id="Fill-7" fill="#FFCC01" mask="url(#mask-2)"></path>
                    </g>
                    <path d="M6,4.63517294 C6.79744785,4.63071331 7.69953374,4.77601115 8.36937423,4.82103909 C9.19018405,4.87613719 9.63582822,4.94130543 9.89300613,5 C9.91872393,4.95310188 9.95307975,4.89958624 10,4.83671975 C8.11533742,3.37295189 6.60132515,4.18144087 6,4.63517294" id="Fill-10" fill="#FFCC01"></path>
                    <path d="M17.8971427,26.9978316 C17.8971427,26.2436061 17.4157281,23.3897541 18.1697604,20.8069458 C18.6907675,18.7067416 20.2591073,16.9085742 22,15.1521798 C20.9546371,15.2688365 19.6394142,15.2164757 18.0929389,14.7533143 C18.0080413,14.727904 17.3840146,14.5386738 17.281586,14.5074884 C17.1029269,14.4530101 16.9429806,14.3941043 16.8886147,14.3450162 C16.8683259,14.3386636 16.850007,14.3328885 16.8320819,14.3271134 C14.8357087,14.0820575 13.4736049,13.5478626 12.5610053,13 C12.2562801,14.4591702 11.6927257,15.70447 10.9757253,16.7634272 C9.5434974,19.0492039 7.07614943,20.0246149 5,20.4409982 C7.90483639,23.7143136 12.1499119,26.7637484 15.1349184,28.7095653 C17.0394999,29.5937301 17.8971427,28.2966471 17.8971427,26.9978316" id="Fill-12" fill="#FFCC01"></path>
                    <g id="Group-16" transform="translate(18.000000, 22.000000)" fill="#FFCC01">
                        <path d="M10.0849328,0.3004 C6.64800172,-0.1376 -0.246153448,-0.546327273 0.0184155172,5.27276364 C0.0242948276,5.32476364 0.0301741379,5.37858182 0.0358637931,5.43476364 C0.294363793,7.96058182 1.15445,7.90094545 2.27701897,7.27021818 C4.67653621,5.63712727 8.20791552,3.07512727 10.8481052,0.483854545 C10.5774672,0.428763636 10.3214328,0.366945455 10.0849328,0.3004" id="Fill-14"></path>
                    </g>
                    <path d="M4.65275873,13.4778303 C2.47738359,10.9610481 1.375254,12.2849673 1.02172272,12.9150824 C1.03676152,12.917599 1.04630997,12.9191476 1.04630997,12.9191476 C1.03079374,12.9758677 1.01551623,13.0244572 1,13.0736275 C1.4478222,14.5402178 2.21503999,16.0530748 3.35130528,17.5707713 C3.70889466,18.0481488 4.11661338,18.5253327 4.56300332,19 C7.25566561,17.3864795 5.49349956,14.5700297 4.65275873,13.4778303" id="Fill-17" fill="#FFCC01"></path>
                </g>
            </g>
        </g>
    </g>
</svg>