<?xml version="1.0" encoding="UTF-8"?>
<svg width="280px" height="190px" viewBox="0 0 280 190" version="1.1" xmlns="http://www.w3.org/2000/svg" xmlns:xlink="http://www.w3.org/1999/xlink">
    <!-- Generator: sketchtool 46.2 (44496) - http://www.bohemiancoding.com/sketch -->
    <title>9299F1D5-75C1-465C-8A5C-87DF88F53B98</title>
    <desc>Created with sketchtool.</desc>
    <defs>
        <rect id="path-1" x="0" y="0" width="280" height="190"></rect>
        <filter x="-2.8%" y="-2.8%" width="111.2%" height="111.2%" filterUnits="objectBoundingBox" id="filter-3">
            <feOffset dx="5" dy="5" in="SourceAlpha" result="shadowOffsetOuter1"></feOffset>
            <feGaussianBlur stdDeviation="2" in="shadowOffsetOuter1" result="shadowBlurOuter1"></feGaussianBlur>
            <feColorMatrix values="0 0 0 0 0   0 0 0 0 0   0 0 0 0 0  0 0 0 0.2 0" type="matrix" in="shadowBlurOuter1" result="shadowMatrixOuter1"></feColorMatrix>
            <feMerge>
                <feMergeNode in="shadowMatrixOuter1"></feMergeNode>
                <feMergeNode in="SourceGraphic"></feMergeNode>
            </feMerge>
        </filter>
        <polygon id="path-4" points="0.000345025877 0.931569868 158.939965 0.931569868 158.939965 159.874468 0.000345025877 159.874468"></polygon>
        <polygon id="path-6" points="0.000345025877 0.931569868 158.939965 0.931569868 158.939965 159.874468 0.000345025877 159.874468"></polygon>
        <polygon id="path-8" points="0.429881731 0.588497468 2.1709985 0.588497468 2.1709985 46.5452746 0.429881731 46.5452746 0.429881731 0.588497468"></polygon>
        <polygon id="path-10" points="0.170339257 0.588497468 1.91145603 0.588497468 1.91145603 46.5452746 0.170339257 46.5452746 0.170339257 0.588497468"></polygon>
        <polygon id="path-12" points="0.625118958 0.588497468 2.36623573 0.588497468 2.36623573 46.5452746 0.625118958 46.5452746 0.625118958 0.588497468"></polygon>
    </defs>
    <g id="pazomat" stroke="none" stroke-width="1" fill="none" fill-rule="evenodd">
        <g id="001_pazomat_hp-" transform="translate(-20.000000, -936.000000)">
            <g id="Group-18" transform="translate(20.000000, 936.000000)">
                <g id="hatzafa-001">
                    <g id="IMG-001">
                        <mask id="mask-2" fill="white">
                            <use xlink:href="#path-1"></use>
                        </mask>
                        <use id="img-bg" fill="#F5F5F5" xlink:href="#path-1"></use>
                        <g id="Page-1" filter="url(#filter-3)" mask="url(#mask-2)">
                            <g transform="translate(60.000000, 13.000000)">
                                <g id="Group-17">
                                    <g id="Group-3">
                                        <mask id="mask-5" fill="white">
                                            <use xlink:href="#path-4"></use>
                                        </mask>
                                        <g id="Clip-2"></g>
                                        <path d="M158.939965,80.4012076 C158.939965,124.293675 123.362622,159.874468 79.4684301,159.874468 C35.5811386,159.874468 0.000345025877,124.293675 0.000345025877,80.4012076 C0.000345025877,36.5121909 35.5811386,0.931397355 79.4684301,0.931397355 C123.362622,0.931397355 158.939965,36.5121909 158.939965,80.4012076" id="Fill-1" fill="#FEFEFE" mask="url(#mask-5)"></path>
                                    </g>
                                    <path d="M152.73778,80.4046578 C152.73778,120.869293 119.934445,153.669178 79.4680851,153.669178 C39.0051754,153.669178 6.20184014,120.869293 6.20184014,80.4046578 C6.20184014,39.9417481 39.0051754,7.13668775 79.4680851,7.13668775 C119.934445,7.13668775 152.73778,39.9417481 152.73778,80.4046578" id="Fill-4" fill="#0070AF"></path>
                                    <g id="Group-10">
                                        <mask id="mask-7" fill="white">
                                            <use xlink:href="#path-6"></use>
                                        </mask>
                                        <g id="Clip-9"></g>
                                        <path d="M158.939965,80.4012076 C158.939965,124.293675 123.362622,159.874468 79.4684301,159.874468 C35.5811386,159.874468 0.000345025877,124.293675 0.000345025877,80.4012076 C0.000345025877,36.5121909 35.5811386,0.931397355 79.4684301,0.931397355 C123.362622,0.931397355 158.939965,36.5121909 158.939965,80.4012076" id="Fill-8" fill="#FEFEFE" mask="url(#mask-7)"></path>
                                    </g>
                                    <path d="M152.73778,80.4046578 C152.73778,120.869293 119.934445,153.669178 79.4680851,153.669178 C39.0051754,153.669178 6.20184014,120.869293 6.20184014,80.4046578 C6.20184014,39.9417481 39.0051754,7.13668775 79.4680851,7.13668775 C119.934445,7.13668775 152.73778,39.9417481 152.73778,80.4046578" id="Fill-11" fill="#0070AF"></path>
                                    <path d="M78.2025302,114.951064 C97.2841863,114.951064 112.751696,99.4835538 112.751696,80.4018976 C112.751696,61.3236918 97.2841863,45.8527315 78.2025302,45.8527315 C59.1208741,45.8527315 43.653364,61.3236918 43.653364,80.4018976 C43.653364,99.4835538 59.1208741,114.951064 78.2025302,114.951064" id="Fill-13" fill="#0070AF"></path>
                                    <path d="M40.1258194,57.5137435 C40.1258194,57.5137435 35.4317424,57.5137435 35.4317424,62.2078206 L35.4317424,98.3527315 C35.4317424,98.3527315 35.4317424,103.046809 40.1258194,103.046809 L118.814146,103.046809 C118.814146,103.046809 123.508223,103.046809 123.508223,98.3527315 L123.508223,62.2078206 C123.508223,62.2078206 123.508223,57.5137435 118.814146,57.5137435 L40.1258194,57.5137435 Z" id="Fill-15" fill="#FAB81B"></path>
                                </g>
                                <g id="Group-27" transform="translate(56.541353, 56.541353)">
                                    <g id="Group-20">
                                        <mask id="mask-9" fill="white">
                                            <use xlink:href="#path-8"></use>
                                        </mask>
                                        <g id="Clip-19"></g>
                                        <path d="M0.429881731,49.1176005 L0.429881731,-2.64405993" id="Stroke-18" stroke="#FEFEFE" stroke-width="0.96" mask="url(#mask-9)"></path>
                                    </g>
                                    <g id="Group-23" transform="translate(44.619019, 0.000000)">
                                        <mask id="mask-11" fill="white">
                                            <use xlink:href="#path-10"></use>
                                        </mask>
                                        <g id="Clip-22"></g>
                                        <path d="M0.170339257,49.6514269 L0.170339257,-2.11197464" id="Stroke-21" stroke="#FEFEFE" stroke-width="0.96" mask="url(#mask-11)"></path>
                                    </g>
                                    <g id="Group-26" transform="translate(21.984501, 0.000000)">
                                        <mask id="mask-13" fill="white">
                                            <use xlink:href="#path-12"></use>
                                        </mask>
                                        <g id="Clip-25"></g>
                                        <path d="M0.625118958,50.1836863 L0.625118958,-1.57797413" id="Stroke-24" stroke="#FEFEFE" stroke-width="0.96" mask="url(#mask-13)"></path>
                                    </g>
                                </g>
                                <g id="Group-42" transform="translate(34.887218, 56.541353)">
                                    <path d="M5.65430495,0.589890362 C5.65430495,0.589890362 0.934289068,0.589890362 0.934289068,5.32746909 L0.934289068,41.8073477 C0.934289068,41.8073477 0.934289068,46.5449264 5.65430495,46.5449264 L84.7774525,46.5449264 C84.7774525,46.5449264 89.4974684,46.5449264 89.4974684,41.8073477 L89.4974684,5.32746909 C89.4974684,5.32746909 89.4974684,0.589890362 84.7774525,0.589890362 L5.65430495,0.589890362 Z" id="Stroke-28" stroke="#FEFEFE" stroke-width="0.96"></path>
                                    <path d="M71.5411125,36.4741329 C71.5411125,36.5559654 71.6070296,36.6221278 71.6868241,36.6221278 L74.0078021,36.6221278 C74.0893312,36.6221278 74.1535138,36.5559654 74.1535138,36.4741329 L74.1535138,29.6733308 C74.1535138,29.5497115 74.2732054,29.5288181 74.2992254,29.5288181 L75.3313494,29.5288181 C75.4128785,29.5288181 75.4787957,29.4643968 75.4787957,29.3825643 L75.4787957,27.0459856 C75.4787957,26.9641531 75.4128785,26.8997318 75.3313494,26.8997318 L70.3615422,26.8997318 C70.2817477,26.8997318 70.2158305,26.9641531 70.2158305,27.0459856 L70.2158305,29.3825643 C70.2158305,29.4643968 70.2817477,29.5288181 70.3615422,29.5288181 L71.3954008,29.5288181 C71.466522,29.5288181 71.5411125,29.5810516 71.5411125,29.6733308" id="Fill-30" fill="#0070AF"></path>
                                    <path d="M86.4406466,28.2038282 L86.4406466,27.0459856 C86.4406466,26.9658942 86.3764641,26.8997318 86.294935,26.8997318 L76.9451057,26.8997318 C76.8635765,26.8997318 76.7976594,26.9658942 76.7976594,27.0459856 L76.7976594,29.3825643 C76.7976594,29.4643968 76.8635765,29.5305592 76.9451057,29.5305592 L77.9737603,29.5305592 C78.0726361,29.5305592 78.1212066,29.6002039 78.1212066,29.6733308 L78.1212066,32.032544 C78.1212066,32.1143765 78.1871238,32.1805389 78.2669183,32.1805389 L80.3762675,32.1805389 C80.4577966,32.1805389 80.5219791,32.1143765 80.5219791,32.032544 L80.5219791,29.6820364 C80.5219791,29.5688638 80.6295282,29.5357826 80.6659561,29.5357826 L83.6773297,29.5357826 C83.7467162,29.5357826 83.8230413,29.5880161 83.8230413,29.6802952 L83.8230413,33.806742 C83.8230413,33.8990212 83.7397775,33.9512547 83.6790644,33.9512547 L76.9399017,33.9512547 C76.8583725,33.9512547 76.7924554,34.0191582 76.7924554,34.1009907 L76.7924554,36.4741329 C76.7924554,36.5559654 76.8583725,36.6221278 76.9399017,36.6221278 L86.294935,36.6221278 C86.3764641,36.6221278 86.4423813,36.5559654 86.4423813,36.475874 L86.4423813,28.2142749 C86.4423813,28.2107927 86.4406466,28.2073105 86.4406466,28.2038282" id="Fill-32" fill="#0070AF"></path>
                                    <polygon id="Fill-34" fill="#0070AF" points="69.8012463 1.39254519 69.8012463 24.7914135 74.9809476 24.7914135 74.9809476 13.3470529 81.0245108 13.3470529 81.0245108 24.7914135 86.2042121 24.7914135 86.2042121 1.39254519 81.0245108 1.39254519 81.0245108 8.8689006 74.9809476 8.8689006 74.9809476 1.39254519"></polygon>
                                    <path d="M24.0673974,36.4570699 L29.4621969,36.4570699 L30.6504405,31.0038922 L37.4850096,31.0038922 L38.6715186,36.4570699 L44.0663181,36.4570699 L37.2681769,10.678095 L30.8655386,10.678095 L24.0673974,36.4570699 Z M34.0312972,15.1562474 L34.1024183,15.1562474 L36.5847199,26.7433795 L31.5489955,26.7433795 L34.0312972,15.1562474 Z" id="Fill-36" fill="#0070AF"></path>
                                    <path d="M47.6683441,28.406146 L47.6683441,29.4525572 C47.6683441,34.2197349 49.9702409,36.9602527 55.8333992,36.9602527 C61.4450314,36.9602527 64.7547669,34.5070192 64.7547669,29.0538414 C64.7547669,25.9128668 63.7469282,23.9297348 59.8630195,22.2321459 L55.8698271,20.4979936 C53.6754794,19.5595317 53.2071206,18.5845063 53.2071206,16.9948667 C53.2071206,15.4818362 53.8194564,14.0001458 56.157781,14.0001458 C58.1352959,14.0001458 58.9627298,15.4087093 58.9627298,17.8253794 L63.9273331,17.8253794 L63.9273331,17.1062982 C63.9273331,12.1580443 60.5811697,10.1714301 55.9773761,10.1714301 C51.0856287,10.1714301 48.0274192,12.7360951 48.0274192,17.7539936 C48.0274192,22.0510698 50.1506458,23.9645571 54.7544393,25.5524556 C58.1717238,26.7433795 59.3582328,27.6121967 59.3582328,29.9592222 C59.3582328,32.1251714 57.847342,33.1350191 56.2653301,33.1350191 C53.5315024,33.1350191 52.8480455,31.581943 52.8480455,29.1635318 L52.8480455,28.406146 L47.6683441,28.406146 Z" id="Fill-38" fill="#0070AF"></path>
                                    <path d="M20.8698946,19.379152 C20.8698946,15.6235631 20.3304146,10.1721265 12.9199376,10.1721265 C5.15038558,10.1721265 4.1807094,15.7332535 4.1807094,23.5665378 C4.1807094,31.4015633 5.15038558,36.9609491 12.9199376,36.9609491 C19.7180788,36.9609491 21.0849927,32.1606902 21.0849927,26.5995632 L15.9052913,26.5995632 C15.9052913,32.1606902 14.5383775,33.1339745 12.6684116,33.1339745 C10.4393707,33.1339745 9.35867611,31.7271521 9.35867611,23.9286901 C9.35867611,16.635152 9.97101187,13.9991012 12.5972905,13.9991012 C14.9356151,13.9991012 15.6901932,15.6235631 15.6901932,19.379152 L20.8698946,19.379152 Z" id="Fill-40" fill="#0070AF"></path>
                                </g>
                            </g>
                        </g>
                    </g>
                </g>
            </g>
        </g>
    </g>
</svg>