<?xml version="1.0" encoding="UTF-8"?>
<svg width="19px" height="18px" viewBox="0 0 19 18" version="1.1" xmlns="http://www.w3.org/2000/svg" xmlns:xlink="http://www.w3.org/1999/xlink">
    <!-- Generator: sketchtool 46.2 (44496) - http://www.bohemiancoding.com/sketch -->
    <title>8DD3474C-79CF-457C-9F67-A42D5AE0C60A</title>
    <desc>Created with sketchtool.</desc>
    <defs></defs>
    <g id="pazomat" stroke="none" stroke-width="1" fill="none" fill-rule="evenodd">
        <g id="001_pazomat_hp-" transform="translate(-114.000000, -98.000000)" stroke="#0176C2">
            <g id="Group-15" transform="translate(11.000000, 97.000000)">
                <g id="Group-13" transform="translate(100.000000, 1.000000)">
                    <g id="login" transform="translate(3.000000, 0.000000)">
                        <path d="M0.497814018,17.6593232 L0.494170061,17.674686 C0.495671949,17.669595 0.496879506,17.6644594 0.497813923,17.6593236 Z M18.4717365,17.4999945 L17.3314107,12.6893374 L17.3273978,12.6550102 C17.0039797,11.4560464 15.944148,10.5806851 14.7160837,10.473533 L4.3349422,10.4716842 C3.0506451,10.5824348 1.98315955,11.4774006 1.67665747,12.6893374 L0.535605581,17.4999945 L18.4717365,17.4999945 Z M9.47351567,8.51901309 L9.47868535,8.51892388 C11.7187579,8.49185591 13.5091793,6.69802218 13.4855675,4.50973682 C13.4855657,4.48462266 13.4855657,4.48462266 13.4854308,4.46292668 C13.4851779,4.44276267 13.4851779,4.44276267 13.4844381,4.41852415 C13.4327064,2.20660999 11.5550554,0.450185804 9.28565002,0.501083173 C7.01670469,0.551417119 5.22312949,2.38954236 5.27484941,4.6009524 C5.32658067,6.81339771 7.20414313,8.56990973 9.47351567,8.51901309 Z" id="Stroke-3"></path>
                    </g>
                </g>
            </g>
        </g>
    </g>
</svg>