<?xml version="1.0" encoding="UTF-8"?>
<svg width="20px" height="20px" viewBox="0 0 20 20" version="1.1" xmlns="http://www.w3.org/2000/svg" xmlns:xlink="http://www.w3.org/1999/xlink">
    <!-- Generator: sketchtool 46.2 (44496) - http://www.bohemiancoding.com/sketch -->
    <title>CB00C17C-79E2-4B2F-8241-743B3EDFDE73</title>
    <desc>Created with sketchtool.</desc>
    <defs>
        <polygon id="path-1" points="0 10.0000741 0 20 20 20 20 10.0000741 20 0.000148148148 0 0.000148148148 0 10.0000741"></polygon>
    </defs>
    <g id="pazomat" stroke="none" stroke-width="1" fill="none" fill-rule="evenodd">
        <g id="001_pazomat_hp-" transform="translate(-14.000000, -97.000000)">
            <g id="Group-15" transform="translate(11.000000, 97.000000)">
                <g id="Group-7">
                    <g id="menu" transform="translate(3.000000, 0.000000)">
                        <mask id="mask-2" fill="white">
                            <use xlink:href="#path-1"></use>
                        </mask>
                        <g id="Clip-2"></g>
                        <path d="M10,19.2594074 C15.1137037,19.2594074 19.2592593,15.1138519 19.2592593,10.0001481 C19.2592593,4.88607407 15.1137037,0.740888889 10,0.740888889 C4.8862963,0.740888889 0.740740741,4.88607407 0.740740741,10.0001481 C0.740740741,15.1138519 4.8862963,19.2594074 10,19.2594074 M5.55555556,7.03718519 C5.55555556,6.83088889 5.72148148,6.66681481 5.92592593,6.66681481 L14.0737037,6.66681481 C14.2788889,6.66681481 14.4444444,6.83237037 14.4444444,7.03718519 C14.4444444,7.24311111 14.2785185,7.40755556 14.0737037,7.40755556 L5.92592593,7.40755556 C5.72111111,7.40755556 5.55555556,7.24162963 5.55555556,7.03718519 M5.55555556,10.1853333 C5.55555556,9.97903704 5.72148148,9.81496296 5.92592593,9.81496296 L14.0737037,9.81496296 C14.2788889,9.81496296 14.4444444,9.98051852 14.4444444,10.1853333 C14.4444444,10.3912593 14.2785185,10.5557037 14.0737037,10.5557037 L5.92592593,10.5557037 C5.72111111,10.5557037 5.55555556,10.3897778 5.55555556,10.1853333 M5.55555556,13.3334815 C5.55555556,13.1271852 5.72148148,12.9631111 5.92592593,12.9631111 L14.0737037,12.9631111 C14.2788889,12.9631111 14.4444444,13.1286667 14.4444444,13.3334815 C14.4444444,13.5394074 14.2785185,13.7038519 14.0737037,13.7038519 L5.92592593,13.7038519 C5.72111111,13.7038519 5.55555556,13.5379259 5.55555556,13.3334815 M10,20.0001481 C4.47703704,20.0001481 0,15.5227407 0,10.0001481 C0,4.47718519 4.47703704,0.000148148148 10,0.000148148148 C15.522963,0.000148148148 20,4.47718519 20,10.0001481 C20,15.5227407 15.522963,20.0001481 10,20.0001481" id="Fill-1" stroke="#0176C2" stroke-width="0.2" fill="#0176C2" mask="url(#mask-2)"></path>
                    </g>
                </g>
            </g>
        </g>
    </g>
</svg>