<?xml version="1.0" encoding="UTF-8"?>
<svg width="126px" height="36px" viewBox="0 0 126 36" version="1.1" xmlns="http://www.w3.org/2000/svg" xmlns:xlink="http://www.w3.org/1999/xlink">
    <!-- Generator: sketchtool 46.2 (44496) - http://www.bohemiancoding.com/sketch -->
    <title>21E6AE92-5BB0-4957-A373-70ACF70A663A</title>
    <desc>Created with sketchtool.</desc>
    <defs>
        <polygon id="path-1" points="0 30.9342222 0 0.106666667 42.8152352 0.106666667 85.6304704 0.106666667 85.6304704 30.9342222"></polygon>
        <polygon id="path-3" points="51.2041408 0.1192 51.2041408 31.1111111 0.130549296 31.1111111 0.130549296 0.1192"></polygon>
        <path d="M9.32664475,11.9404444 C10.8445391,10.3322933 11.7773803,8.1478358 11.7773803,5.74222222 C11.7773803,3.65421655 11.0746004,1.73314219 9.89646238,0.210966514 L0.809099466,0.210966514 L0.809099466,11.9404444 L9.32664475,11.9404444 L9.32664475,11.9404444 Z" id="path-5"></path>
    </defs>
    <g id="pazomat" stroke="none" stroke-width="1" fill="none" fill-rule="evenodd">
        <g id="001_pazomat_hp-" transform="translate(-179.000000, -97.000000)">
            <g id="pazomat-logo" transform="translate(179.000000, 97.000000)">
                <path d="M17.652573,5.00266628 L59.4765211,5 C61.6109231,5 63.5343362,5.91186665 64.8834393,7.38098515 L86.8866899,30.4051737 C87.4802602,30.9802007 87.8497096,31.7960814 87.8497096,32.6946167 C87.8497096,34.4339179 86.4629612,35.8230481 84.7461596,35.8230481 L17.652573,35.8230481 C9.0090329,35.8230481 2,28.9289452 2,20.4093022 C2,11.8896591 9.0090329,5.00266628 17.652573,5.00266628 Z M97.3991886,34.6979682 L75.9212216,12.1039389 C75.2392285,11.3600477 74.7953639,10.3308649 74.7953639,9.22080499 C74.7953639,6.89670041 76.6513657,5.0125315 78.9407263,5.0125315 L121.854638,5.0125315 C124.143998,5.0125315 126,6.89670041 126,9.22080499 C126,10.3317536 125.552634,11.3600477 124.875018,12.1030502 L103.386545,34.7068558 C102.633639,35.502295 101.570815,36 100.397682,36 C99.219296,36 98.1512195,35.4969625 97.3991886,34.6979682 Z" id="Fill-1" fill="#E9EBF0"></path>
                <g id="logo">
                    <g id="Group-31" transform="translate(0.000000, 0.782222)">
                        <g id="Group-3">
                            <mask id="mask-2" fill="white">
                                <use xlink:href="#path-1"></use>
                            </mask>
                            <g id="Clip-2"></g>
                            <path d="M15.6123859,0.109333333 L57.3296535,0.106666667 C59.4586113,0.106666667 61.3771183,1.01866667 62.7227803,2.488 L84.669907,25.5155556 C85.2619634,26.0906667 85.6304704,26.9066667 85.6304704,27.8053333 C85.6304704,29.5448889 84.2472592,30.9342222 82.5348366,30.9342222 L15.6123859,30.9342222 C6.99089296,30.9342222 -0.000261971831,24.0391111 -0.000261971831,15.5182222 C-0.000261971831,6.99733333 6.99089296,0.109333333 15.6123859,0.109333333" id="Fill-1" fill="#FEFEFE" mask="url(#mask-2)"></path>
                        </g>
                        <g id="Group-6" transform="translate(72.478873, 0.000000)">
                            <mask id="mask-4" fill="white">
                                <use xlink:href="#path-3"></use>
                            </mask>
                            <g id="Clip-5"></g>
                            <path d="M22.6767183,29.8089778 L1.25353521,7.21164444 C0.57328169,6.46764444 0.130549296,5.43831111 0.130549296,4.32808889 C0.130549296,2.00364444 1.9818169,0.1192 4.26533803,0.1192 L47.0697887,0.1192 C49.3533099,0.1192 51.2045775,2.00364444 51.2045775,4.32808889 C51.2045775,5.4392 50.7583521,6.46764444 50.0824648,7.21075556 L28.6488028,29.8178667 C27.8978169,30.6134222 26.8377042,31.1112 25.6675634,31.1112 C24.4921831,31.1112 23.426831,30.6080889 22.6767183,29.8089778" id="Fill-4" fill="#006BAB" mask="url(#mask-4)"></path>
                        </g>
                        <path d="M98.146262,28.7308444 C97.6354169,28.7308444 97.1734732,28.5139556 96.8468817,28.1655111 L75.428938,5.57617778 C75.1320366,5.24995556 74.9469099,4.80817778 74.9469099,4.32817778 C74.9469099,3.3184 75.7511634,2.49884444 76.7440366,2.49884444 L119.548487,2.49884444 C120.541361,2.49884444 121.344741,3.3184 121.344741,4.32817778 C121.344741,4.80817778 121.159614,5.24995556 120.862713,5.57617778 L99.444769,28.1655111 C99.1181775,28.5139556 98.6579803,28.7308444 98.146262,28.7308444" id="Fill-7" fill="#FEFEFE"></path>
                        <path d="M99.0800169,27.8089778 C98.8451155,28.0596444 98.5141577,28.2160889 98.1465239,28.2160889 C97.7788901,28.2160889 97.4461859,28.0596444 97.2112845,27.8089778 L75.7959606,5.22231111 C75.5828901,4.98764444 75.4519042,4.67297778 75.4519042,4.32808889 C75.4519042,3.60186667 76.0299887,3.01253333 76.7442986,3.01253333 L119.547876,3.01253333 C120.261313,3.01253333 120.839397,3.60186667 120.839397,4.32808889 C120.839397,4.67386667 120.709285,4.98764444 120.495341,5.22231111 L99.0800169,27.8089778" id="Fill-9" fill="#FAB90A"></path>
                        <path d="M88.9022366,8.96871111 L88.0202648,8.96871111 C87.6465183,8.96871111 87.3435042,8.65937778 87.3435042,8.27982222 L87.3435042,5.49404444 C87.3435042,5.11271111 87.6465183,4.80426667 88.0202648,4.80426667 L93.8622366,4.80426667 C94.2359831,4.80426667 94.5398704,5.1136 94.5398704,5.49404444 L94.5398704,8.27982222 C94.5398704,8.65937778 94.2359831,8.96871111 93.8622366,8.96871111 L92.9837577,8.96871111 L92.9837577,16.7304889 C92.9837577,17.1082667 92.6824901,17.4211556 92.3052507,17.4211556 L89.5789972,17.4211556 C89.2017577,17.4211556 88.9022366,17.1073778 88.9022366,16.7304889 L88.9022366,8.96871111" id="Fill-11" fill="#FEFEFE"></path>
                        <path d="M96.6325887,8.96871111 L95.7567296,8.96871111 C95.3829831,8.96871111 95.0782225,8.66115556 95.0782225,8.27982222 L95.0782225,5.49404444 C95.0782225,5.11182222 95.3829831,4.80426667 95.7567296,4.80426667 L106.744701,4.80426667 C107.119321,4.80426667 107.423208,5.11271111 107.423208,5.49404444 L107.424082,16.7313778 C107.424082,17.1136 107.120194,17.4211556 106.746448,17.4211556 L95.7506169,17.4211556 C95.3742507,17.4211556 95.0729831,17.1091556 95.0729831,16.7304889 L95.0729831,13.9002667 C95.0729831,13.5224889 95.3742507,13.2096 95.7506169,13.2096 L103.334701,13.2096 L103.334701,8.97582222 L100.466983,8.97582222 L100.466983,11.4371556 C100.466983,11.8176 100.164842,12.1278222 99.7893493,12.1278222 L97.3102225,12.1278222 C96.9356028,12.1278222 96.6325887,11.8176 96.6325887,11.4371556 L96.6325887,8.96871111" id="Fill-13" fill="#FEFEFE"></path>
                        <path d="M93.8619746,5.31937778 L88.0208761,5.31937778 C87.925693,5.31937778 87.8488479,5.3976 87.8488479,5.4936 L87.8488479,8.27937778 C87.8488479,8.37537778 87.925693,8.4536 88.0208761,8.4536 L89.2364254,8.4536 C89.3202563,8.4536 89.4075803,8.51671111 89.4075803,8.62515556 L89.4075803,16.7309333 C89.4075803,16.8269333 89.4844254,16.9069333 89.5796085,16.9069333 L92.305862,16.9069333 C92.4001718,16.9069333 92.4778901,16.8269333 92.4778901,16.7309333 L92.4778901,8.62515556 C92.4778901,8.4776 92.6167352,8.4536 92.6481718,8.4536 L93.8619746,8.4536 C93.9562845,8.4536 94.0340028,8.37537778 94.0340028,8.27937778 L94.0340028,5.4936 C94.0340028,5.3976 93.9562845,5.31937778 93.8619746,5.31937778" id="Fill-15" fill="#006BAB"></path>
                        <path d="M106.917865,6.87413333 L106.917865,5.49368889 C106.917865,5.39768889 106.84102,5.31946667 106.744963,5.31946667 L95.7569915,5.31946667 C95.6609352,5.31946667 95.5840901,5.39768889 95.5840901,5.49368889 L95.5840901,8.27946667 C95.5840901,8.37546667 95.6609352,8.45368889 95.7569915,8.45368889 L96.9664282,8.45368889 C97.0816958,8.45368889 97.1384563,8.53813333 97.1384563,8.62524444 L97.1384563,11.4376889 C97.1384563,11.5336889 97.2161746,11.6128 97.3104845,11.6128 L99.7896113,11.6128 C99.8847944,11.6128 99.9616394,11.5336889 99.9616394,11.4376889 L99.9616394,8.63413333 C99.9616394,8.49902222 100.087386,8.4608 100.130175,8.4608 L103.671161,8.4608 C103.751499,8.4608 103.841442,8.52391111 103.841442,8.63324444 L103.841442,13.5505778 C103.841442,13.6634667 103.744513,13.7248 103.671161,13.7248 L95.7508789,13.7248 C95.6556958,13.7248 95.5788507,13.8039111 95.5788507,13.8999111 L95.5788507,16.7310222 C95.5788507,16.8270222 95.6556958,16.9070222 95.7508789,16.9070222 L106.74671,16.9070222 C106.841893,16.9070222 106.918738,16.8279111 106.918738,16.7319111 L106.918738,6.88568889 C106.918738,6.88124444 106.917865,6.87768889 106.917865,6.87413333" id="Fill-17" fill="#006BAB"></path>
                        <path d="M37.3197211,15.7647111 C37.3197211,12.9167111 36.7477493,11.8349333 34.8475803,11.8349333 C33.8372423,11.8349333 33.4390451,12.0473778 33.4390451,12.0473778 L33.172707,14.3264889 L33.3988761,14.4118222 C33.4652423,14.3264889 33.6241718,14.2553778 33.8372423,14.2553778 C34.5009042,14.2553778 34.5550451,15.0091556 34.5550451,15.9220444 C34.5550451,17.0616 34.2494113,17.5602667 33.4783408,17.5602667 C32.946538,17.5602667 32.5081718,17.3878222 32.5081718,16.3762667 L32.5081718,11.9487111 L29.7565944,11.9487111 L29.7565944,16.2767111 C29.7565944,19.0687111 31.111862,19.7816 33.4521437,19.7816 C36.2561155,19.7816 37.3197211,18.6411556 37.3197211,15.7647111" id="Fill-19" fill="#006BAB"></path>
                        <path d="M46.4452479,15.7647111 C46.4452479,12.8740444 45.5676423,11.7904889 43.772262,11.7904889 C42.0187972,11.7904889 41.5140648,13.0740444 41.3804592,14.0420444 L41.2739239,14.0420444 C41.2739239,14.0420444 41.1813606,12.9593778 40.982262,11.9487111 L38.2306845,11.9487111 C38.3765155,13.8002667 38.8952197,14.2687111 38.8952197,15.1673778 C38.8952197,16.0642667 38.4568535,17.4456 38.4289099,19.5958222 L41.128093,19.5958222 C41.2328817,18.1007111 41.3804592,17.1176 41.540262,16.0491556 C41.7655577,14.5976 42.2309944,14.3264889 42.7496986,14.3264889 C43.4797268,14.3264889 43.6535014,14.8393778 43.6535014,15.9931556 C43.6535014,17.0616 43.4535296,17.3024889 43.068431,17.4740444 C42.776769,17.6011556 42.2580648,17.4456 42.1916986,17.3878222 L42.1916986,19.4393778 C42.696431,19.6384889 43.2946,19.7389333 43.746938,19.7389333 C45.6995014,19.7389333 46.4452479,18.3282667 46.4452479,15.7647111" id="Fill-21" fill="#006BAB"></path>
                        <path d="M50.4242507,19.5954667 L50.4242507,12.9021333 C50.4242507,12.6176889 50.3709831,11.9483556 50.3709831,11.9483556 L47.606307,11.9483556 C47.6464761,12.3465778 47.6735465,12.9021333 47.6735465,12.9021333 L47.6735465,19.5954667 L50.4242507,19.5954667" id="Fill-23" fill="#006BAB"></path>
                        <path d="M56.048262,14.4825778 L56.048262,11.9483556 L51.3825437,11.9483556 L51.3825437,14.4825778 L52.3003183,14.4825778 C52.3003183,14.4825778 52.8853887,14.4408 53.0713887,14.3839111 L53.0984592,14.4683556 C53.0984592,14.4683556 52.1675859,14.8816889 52.1675859,16.0781333 L52.1675859,19.5954667 L54.9191634,19.5954667 L54.9191634,15.6932444 C54.9191634,15.1243556 55.3435577,14.4825778 55.8491634,14.4825778 L56.048262,14.4825778" id="Fill-25" fill="#006BAB"></path>
                        <path d="M64.3039549,15.7647111 C64.3039549,12.8882667 63.2534479,11.7629333 60.369138,11.7629333 C57.3922648,11.7629333 56.714631,13.0873778 56.714631,15.3664889 C56.714631,15.4660444 56.7539268,16.2340444 56.7539268,16.2340444 L59.5194761,16.2340444 C59.4260394,14.7824889 59.6120394,14.1131556 60.5018704,14.1131556 C61.3925746,14.1131556 61.5130817,14.8393778 61.5130817,15.6936 C61.5130817,16.5620444 61.3925746,17.3024889 60.5018704,17.3024889 L56.9128563,17.3024889 C56.8735606,18.1718222 56.9792225,19.5958222 56.9792225,19.5958222 L60.4232789,19.5958222 C61.7383775,19.5958222 64.3039549,19.5958222 64.3039549,15.7647111" id="Fill-27" fill="#006BAB"></path>
                        <path d="M4.6806507,15.5199111 C4.6806507,10.5803556 8.61546761,6.57502222 13.4680592,6.57502222 C18.3223972,6.57502222 22.2563408,10.5803556 22.2563408,15.5199111 C22.2563408,20.4603556 18.3223972,24.4656889 13.4680592,24.4656889 C8.61546761,24.4656889 4.6806507,20.4603556 4.6806507,15.5199111" id="Fill-29" fill="#FAB90A"></path>
                    </g>
                    <g id="Group-34" transform="translate(10.478873, 10.560000)">
                        <mask id="mask-6" fill="white">
                            <use xlink:href="#path-5"></use>
                        </mask>
                        <g id="Clip-33"></g>
                        <path d="M9.43404225,0.815111111 L8.72846479,0.816 C7.83776056,0.811555556 6.72350704,0.823111111 6.02142254,0.840888889 C5.99260563,0.847111111 5.95243662,0.850666667 5.89916901,0.850666667 C5.38395775,0.850666667 4.93074648,1.11644444 4.66178873,1.52088889 L3.14671831,4.07911111 C3.14671831,4.07911111 6.50083099,4.00977778 8.72846479,3.98844444 L9.40435211,3.99555556 L10.078493,3.98844444 C12.307,4.00977778 15.6619859,4.07911111 15.6619859,4.07911111 L14.1460423,1.52088889 C13.8779577,1.11644444 13.423,0.850666667 12.908662,0.850666667 C12.8562676,0.850666667 12.8152254,0.847111111 12.7872817,0.840888889 C12.0843239,0.823111111 10.9709437,0.811555556 10.078493,0.816 L9.43404225,0.815111111 Z M12.8632535,6.46311111 C12.8807183,7.14844444 13.6360704,7.12977778 13.6360704,7.12977778 C13.6360704,7.12977778 14.8821831,7.14844444 15.3781831,7.10844444 C15.8733099,7.06755556 16.0112817,6.90755556 16.0724085,6.78666667 C16.1317887,6.66488889 16.1702113,6.16088889 15.9134789,5.79911111 C15.6567465,5.43644444 15.1790845,5.45511111 15.1790845,5.45511111 C15.1790845,5.45511111 14.5468592,5.512 13.6369437,5.69777778 C13.0431408,5.81866667 12.8510282,6.08533333 12.8632535,6.46311111 L12.8632535,6.46311111 Z M5.10015493,6.46311111 C5.11150704,6.08533333 5.14032394,5.94044444 4.3666338,5.77866667 C3.45759155,5.58844444 2.7834507,5.45511111 2.7834507,5.45511111 C2.7834507,5.45511111 2.30753521,5.43644444 2.05080282,5.79911111 C1.79319718,6.16088889 1.83161972,6.66488889 1.89012676,6.78666667 C1.95125352,6.90755556 2.09009859,7.06755556 2.58435211,7.10844444 C3.08035211,7.14844444 4.32646479,7.12977778 4.32646479,7.12977778 C4.32646479,7.12977778 5.0818169,7.14844444 5.10015493,6.46311111 L5.10015493,6.46311111 Z M2.64897183,3.40444444 C3.2261831,2.50666667 3.87674648,1.49955556 4.25747887,0.958222222 C4.58232394,0.525333333 5.09491549,0.245333333 5.67125352,0.245333333 L5.72364789,0.242666667 C6.30784507,0.225777778 7.657,0.2 9.0166338,0.216 L9.37466197,0.212444444 L9.43404225,0.212444444 L9.79032394,0.216 C11.1517042,0.2 12.5008592,0.225777778 13.0850563,0.242666667 L13.134831,0.245333333 C13.7120423,0.245333333 14.2246338,0.525333333 14.5503521,0.958222222 C14.9319577,1.49955556 15.5833944,2.50666667 16.1579859,3.40444444 C16.1833099,3.42044444 16.2051408,3.43733333 16.2252254,3.45422222 C16.3780423,3.416 16.337,2.94666667 16.7264648,3.00444444 C17.1674507,3.06933333 17.9332817,3.07822222 17.9813099,3.40088889 C18.0127465,3.608 18.0214789,4.13066667 17.8363521,4.15911111 C17.1971408,4.25777778 16.9299296,4.23822222 16.7177324,4.25688889 L16.7858451,4.38311111 C17.1560986,4.944 17.5534225,5.54844444 17.7586338,6.01955556 C17.9219296,6.39022222 17.8389718,7.71377778 17.8389718,7.71377778 C17.8389718,7.71377778 17.6215352,9.50044444 17.4556197,10.1422222 L17.4556197,11.1137778 C17.4556197,11.568 17.0888592,11.9404444 16.6426338,11.9404444 L16.085507,11.9404444 C15.6392817,11.9404444 15.2733944,11.568 15.2733944,11.1137778 L15.2733944,10.2906667 C13.466662,10.4542222 11.5734789,10.5146667 9.83747887,10.5191111 L9.74404225,10.5191111 L9.43404225,10.5173333 L9.37466197,10.5173333 L9.06378873,10.5191111 L8.97122535,10.5191111 C7.23347887,10.5146667 5.34116901,10.4542222 3.53443662,10.2906667 L3.53443662,11.1137778 C3.53443662,11.568 3.16767606,11.9404444 2.7214507,11.9404444 L2.16607042,11.9404444 C1.71897183,11.9404444 1.35221127,11.568 1.35221127,11.1137778 L1.35221127,10.1422222 C1.18804225,9.50044444 0.969732394,7.71377778 0.969732394,7.71377778 C0.969732394,7.71377778 0.886774648,6.39022222 1.04832394,6.01955556 C1.25528169,5.54844444 1.65260563,4.944 2.02285915,4.38311111 L2.09009859,4.25688889 C1.87877465,4.23822222 1.61156338,4.25777778 0.971478873,4.15911111 C0.787225352,4.13066667 0.795084507,3.608 0.826521127,3.40088889 C0.873676056,3.07822222 1.6386338,3.06933333 2.0813662,3.00444444 C2.46908451,2.94666667 2.42978873,3.416 2.58173239,3.45422222 C2.60269014,3.43733333 2.62452113,3.42044444 2.64897183,3.40444444 L2.64897183,3.40444444 Z" id="Fill-32" fill="#006BAB" mask="url(#mask-6)"></path>
                    </g>
                    <g id="Group-39" transform="translate(4.366197, 7.004444)" stroke="#006BAB">
                        <path d="M0.314453521,9.29768889 C0.314453521,4.35813333 4.24927042,0.3528 9.10186197,0.3528 C13.9562,0.3528 17.8901437,4.35813333 17.8901437,9.29768889 C17.8901437,14.2381333 13.9562,18.2434667 9.10186197,18.2434667 C4.24927042,18.2434667 0.314453521,14.2381333 0.314453521,9.29768889 Z" id="Stroke-35" stroke-width="1.097"></path>
                        <path d="M4.65253239,5.63537778 C5.39653239,6.63093333 5.83664507,7.87271111 5.83664507,9.2176 C5.83664507,10.5358222 5.41399718,11.7536 4.69881408,12.7376 M3.38720845,6.57226667 C3.94346197,7.30382222 4.27267324,8.22204444 4.27267324,9.2176 C4.27267324,10.1891556 3.95918028,11.0851556 3.42999718,11.8078222 M2.19174366,7.45582222 C2.56985634,7.93937778 2.79602535,8.55182222 2.79602535,9.2176 C2.79602535,9.86115556 2.58557465,10.4549333 2.23103944,10.9304889" id="Stroke-37" stroke-width="0.564" stroke-linecap="round"></path>
                    </g>
                </g>
            </g>
        </g>
    </g>
</svg>